<?xml version="1.0" encoding="UTF-8" standalone="no"?>
<svg width="24px" height="24px" viewBox="0 0 24 24" version="1.1" xmlns="http://www.w3.org/2000/svg" xmlns:xlink="http://www.w3.org/1999/xlink">
    <g stroke="none" stroke-width="1" fill="none" fill-rule="evenodd">
        <path d="M20.64,12.2045c0,-0.6381 -0.0573,-1.2518 -0.1636,-1.8409H12v3.4814h4.8436c-0.2086,1.125 -0.8427,2.0782 -1.7959,2.7164v2.2581h2.9091c1.7018,-1.5668 2.6822,-3.874 2.6822,-6.615z" fill="#4285F4"></path>
        <path d="M12,21c2.43,0 4.4673,-0.8068 5.9564,-2.1805l-2.9091,-2.2581c-0.8059,0.54 -1.8368,0.859 -3.0473,0.859 -2.344,0 -4.3282,-1.5831 -5.0359,-3.7104H3.9546v2.3318C5.4382,18.9832 8.4818,21 12,21z" fill="#34A853"></path>
        <path d="M6.9641,13.7181c-0.18,-0.54 -0.2823,-1.1168 -0.2823,-1.7181s0.1023,-1.1781 0.2823,-1.7181V7.9501H3.9546C3.3496,9.1701 3,10.5477 3,12s0.3496,2.8299 0.9546,4.0499l3.0095,-2.3318z" fill="#FBBC05"></path>
        <path d="M12,6.5795c1.3214,0 2.5077,0.4541 3.4405,1.3473l2.5813,-2.5814C16.4632,3.8918 14.426,3 12,3 8.4818,3 5.4382,5.0168 3.9546,8.0001l3.0095,2.3318C7.6718,8.1627 9.6559,6.5795 12,6.5795z" fill="#EA4335"></path>
    </g>
</svg> 