<svg xmlns="http://www.w3.org/2000/svg" xmlns:xlink="http://www.w3.org/1999/xlink" width="500" zoomAndPan="magnify" viewBox="0 0 375 374.999991" height="500" preserveAspectRatio="xMidYMid meet" version="1.0"><defs><g/><clipPath id="16f183bb64"><path d="M 134.789062 119 L 193 119 L 193 187.3125 L 134.789062 187.3125 Z M 134.789062 119 " clip-rule="nonzero"/></clipPath><clipPath id="a77b84e7e9"><path d="M 192 89.0625 L 240.539062 89.0625 L 240.539062 187.3125 L 192 187.3125 Z M 192 89.0625 " clip-rule="nonzero"/></clipPath><clipPath id="4bdfa801d3"><path d="M 174 103 L 217 103 L 217 187.3125 L 174 187.3125 Z M 174 103 " clip-rule="nonzero"/></clipPath></defs><g clip-path="url(#16f183bb64)"><path fill="#d9d9d9" d="M 163.851562 119.199219 L 134.789062 142.785156 L 134.789062 187.484375 L 169.351562 187.484375 L 169.351562 154.925781 L 158.371094 154.925781 L 158.371094 176.503906 L 145.765625 176.503906 L 145.765625 148.015625 L 163.863281 133.34375 L 181.957031 148.015625 L 181.957031 187.484375 L 192.933594 187.484375 L 192.933594 142.785156 L 163.851562 119.199219 " fill-opacity="1" fill-rule="nonzero"/></g><g clip-path="url(#a77b84e7e9)"><path fill="#000000" d="M 200.96875 89.074219 L 192.261719 96.148438 L 229.222656 124.8125 L 229.222656 187.488281 L 240.199219 187.488281 L 240.199219 119.398438 L 200.96875 89.074219 " fill-opacity="1" fill-rule="nonzero"/></g><g clip-path="url(#4bdfa801d3)"><path fill="#cd4343" d="M 183.257812 103.46875 L 174.230469 110.785156 L 205.652344 135.671875 L 205.652344 187.488281 L 216.632812 187.488281 L 216.632812 130.523438 L 183.257812 103.46875 " fill-opacity="1" fill-rule="nonzero"/></g><g fill="#d9d9d9" fill-opacity="1"><g transform="translate(39.940874, 251.675023)"><g><path d="M 25.0625 0 L 18.828125 0 L 18.828125 -9.515625 L 8.6875 -9.515625 L 8.6875 0 L 2.453125 0 L 2.453125 -24.5 L 8.6875 -24.5 L 8.6875 -14.421875 L 18.828125 -14.421875 L 18.828125 -24.5 L 25.0625 -24.5 Z M 25.0625 0 "/></g></g></g><g fill="#d9d9d9" fill-opacity="1"><g transform="translate(76.194613, 251.675023)"><g><path d="M 14.0625 -24.703125 C 17.875 -24.703125 21.035156 -23.519531 23.546875 -21.15625 C 26.066406 -18.789062 27.328125 -15.832031 27.328125 -12.28125 C 27.328125 -8.71875 26.0625 -5.734375 23.53125 -3.328125 C 21 -0.921875 17.84375 0.28125 14.0625 0.28125 C 10.289062 0.28125 7.144531 -0.910156 4.625 -3.296875 C 2.101562 -5.691406 0.84375 -8.6875 0.84375 -12.28125 C 0.84375 -15.851562 2.101562 -18.816406 4.625 -21.171875 C 7.144531 -23.523438 10.289062 -24.703125 14.0625 -24.703125 Z M 14.140625 -19.5 C 12.222656 -19.5 10.585938 -18.800781 9.234375 -17.40625 C 7.878906 -16.019531 7.203125 -14.300781 7.203125 -12.25 C 7.203125 -10.195312 7.882812 -8.460938 9.25 -7.046875 C 10.625 -5.640625 12.253906 -4.9375 14.140625 -4.9375 C 16.023438 -4.9375 17.628906 -5.640625 18.953125 -7.046875 C 20.273438 -8.460938 20.9375 -10.195312 20.9375 -12.25 C 20.9375 -14.300781 20.273438 -16.019531 18.953125 -17.40625 C 17.628906 -18.800781 16.023438 -19.5 14.140625 -19.5 Z M 14.140625 -19.5 "/></g></g></g><g fill="#d9d9d9" fill-opacity="1"><g transform="translate(113.113196, 251.675023)"><g><path d="M 29.359375 0 L 23.875 0 L 23.828125 -15.921875 L 17.953125 -2.453125 L 13.890625 -2.453125 L 8.015625 -15.921875 L 8.015625 0 L 2.453125 0 L 2.453125 -24.53125 L 9.28125 -24.53125 L 15.921875 -9.9375 L 22.578125 -24.53125 L 29.359375 -24.53125 Z M 29.359375 0 "/></g></g></g><g fill="#d9d9d9" fill-opacity="1"><g transform="translate(153.705954, 251.675023)"><g><path d="M 21.625 -19.59375 L 8.6875 -19.59375 L 8.6875 -14.734375 L 20.375 -14.734375 L 20.375 -9.828125 L 8.6875 -9.828125 L 8.6875 -4.90625 L 22.015625 -4.90625 L 22.015625 0 L 2.453125 0 L 2.453125 -24.5 L 21.625 -24.5 Z M 21.625 -19.59375 "/></g></g></g><g fill="#d9d9d9" fill-opacity="1"><g transform="translate(186.040569, 251.675023)"><g><path d="M 11.859375 -24.78125 C 15.523438 -24.78125 18.75 -23.867188 21.53125 -22.046875 L 19.1875 -17.1875 C 17.894531 -17.9375 16.515625 -18.546875 15.046875 -19.015625 C 13.578125 -19.492188 12.34375 -19.734375 11.34375 -19.734375 C 9.539062 -19.734375 8.640625 -19.140625 8.640625 -17.953125 C 8.640625 -17.179688 9.082031 -16.5625 9.96875 -16.09375 C 10.863281 -15.632812 11.945312 -15.234375 13.21875 -14.890625 C 14.488281 -14.554688 15.757812 -14.148438 17.03125 -13.671875 C 18.300781 -13.191406 19.378906 -12.414062 20.265625 -11.34375 C 21.148438 -10.269531 21.59375 -8.914062 21.59375 -7.28125 C 21.59375 -4.925781 20.671875 -3.085938 18.828125 -1.765625 C 16.984375 -0.453125 14.640625 0.203125 11.796875 0.203125 C 9.765625 0.203125 7.753906 -0.144531 5.765625 -0.84375 C 3.785156 -1.539062 2.0625 -2.492188 0.59375 -3.703125 L 3.015625 -8.5 C 4.242188 -7.425781 5.695312 -6.546875 7.375 -5.859375 C 9.0625 -5.171875 10.554688 -4.828125 11.859375 -4.828125 C 12.867188 -4.828125 13.648438 -5.007812 14.203125 -5.375 C 14.765625 -5.738281 15.046875 -6.269531 15.046875 -6.96875 C 15.046875 -7.644531 14.722656 -8.207031 14.078125 -8.65625 C 13.441406 -9.113281 12.644531 -9.453125 11.6875 -9.671875 C 10.726562 -9.898438 9.6875 -10.195312 8.5625 -10.5625 C 7.445312 -10.9375 6.410156 -11.34375 5.453125 -11.78125 C 4.503906 -12.226562 3.707031 -12.9375 3.0625 -13.90625 C 2.414062 -14.875 2.09375 -16.035156 2.09375 -17.390625 C 2.09375 -19.628906 2.984375 -21.421875 4.765625 -22.765625 C 6.554688 -24.109375 8.921875 -24.78125 11.859375 -24.78125 Z M 11.859375 -24.78125 "/></g></g></g><g fill="#d9d9d9" fill-opacity="1"><g transform="translate(217.325429, 251.675023)"><g><path d="M 30 0 L 23.59375 0 L 19.046875 -16.9375 L 14.421875 0 L 7.984375 0 L -0.03125 -24.5 L 6.609375 -24.5 L 11.40625 -6.46875 L 16.09375 -24.5 L 22.1875 -24.5 L 26.984375 -6.46875 L 31.703125 -24.5 L 38.078125 -24.5 Z M 30 0 "/></g></g></g><g fill="#d9d9d9" fill-opacity="1"><g transform="translate(263.901827, 251.675023)"><g><path d="M 8.6875 0 L 2.453125 0 L 2.453125 -24.5 L 8.6875 -24.5 Z M 8.6875 0 "/></g></g></g><g fill="#d9d9d9" fill-opacity="1"><g transform="translate(283.779274, 251.675023)"><g><path d="M 20.609375 -19.59375 L 8.6875 -19.59375 L 8.6875 -13.9375 L 19.671875 -13.9375 L 19.671875 -9.03125 L 8.6875 -9.03125 L 8.6875 0 L 2.453125 0 L 2.453125 -24.5 L 20.609375 -24.5 Z M 20.609375 -19.59375 "/></g></g></g><g fill="#d9d9d9" fill-opacity="1"><g transform="translate(313.664442, 251.675023)"><g><path d="M 21.171875 -19.5 L 13.796875 -19.5 L 13.796875 0 L 7.5625 0 L 7.5625 -19.5 L 0.25 -19.5 L 0.25 -24.53125 L 21.171875 -24.53125 Z M 21.171875 -19.5 "/></g></g></g></svg>